HIERARCHY
ROOT Spine
{
    OFFSET 0.0 0.0 -0.0
    CHANNELS 6 Xposition Yposition Zposition Zrotation Xrotation Yrotation
    JOINT ShoulderCenter
    {
        OFFSET 0.0 30.907075881958008 0.0
        CHANNELS 3 Zrotation Xrotation Yrotation
        JOINT LeftShoulder
        {
            OFFSET 18.519453048706055 0.0 0.0
            CHANNELS 3 Zrotation Xrotation Yrotation
            JOINT LeftElbow
            {
                OFFSET 24.317726135253906 0.0 0.0
                CHANNELS 3 Zrotation Xrotation Yrotation
                JOINT LeftHand
                {
                    OFFSET 30.032577514648438 0.0 0.0
                    CHANNELS 3 Zrotation Xrotation Yrotation
                    End Site
                    {
                        OFFSET 12.013031005859375 0.0 0.0
                    }
                }
            }
        }
        JOINT RightShoulder
        {
            OFFSET -18.519453048706055 0.0 0.0
            CHANNELS 3 Zrotation Xrotation Yrotation
            JOINT RightElbow
            {
                OFFSET -24.317726135253906 0.0 0.0
                CHANNELS 3 Zrotation Xrotation Yrotation
                JOINT RightHand
                {
                    OFFSET -30.032577514648438 0.0 0.0
                    CHANNELS 3 Zrotation Xrotation Yrotation
                    End Site
                    {
                        OFFSET -12.013031005859375 0.0 0.0
                    }
                }
            }
        }
        End Site
        {
            OFFSET 0.0 12.362829208374023 0.0
        }
    }
    JOINT LeftHip
    {
        OFFSET 19.30285740304037 -19.30285740304037 0.0
        CHANNELS 3 Zrotation Xrotation Yrotation
        JOINT LeftKnee
        {
            OFFSET 0.0 -35.14631652832031 0.0
            CHANNELS 3 Zrotation Xrotation Yrotation
            JOINT LeftFoot
            {
                OFFSET 0.0 -40.35997009277344 0.0
                CHANNELS 3 Zrotation Xrotation Yrotation
                End Site
                {
                    OFFSET 0.0 0.0 16.14398765563965
                }
            }
        }
    }
    JOINT RightHip
    {
        OFFSET -19.30285740304037 -19.30285740304037 0.0
        CHANNELS 3 Zrotation Xrotation Yrotation
        JOINT RightKnee
        {
            OFFSET 0.0 -35.14631652832031 0.0
            CHANNELS 3 Zrotation Xrotation Yrotation
            JOINT RightFoot
            {
                OFFSET 0.0 -40.35997009277344 0.0
                CHANNELS 3 Zrotation Xrotation Yrotation
                End Site
                {
                    OFFSET 0.0 0.0 16.14398765563965
                }
            }
        }
    }
}
MOTION
Frames: 7
Frame Time: 0.03333333333333333
11.100000381469727 1.3000000715255737 5.299999713897705 -2.045407335228695 4.083023664869998 -116.51725654029886 -3.4815435168815176e-07 -6.584634325782754e-08 -3.6473650223211633 99.4176054025086 -24.759585537564863 178.07776059573936 -4.750614464476639e-06 4.892950550446778e-06 56.87421299358989 6.3611093629270335e-15 6.3611093629270335e-15 -3.531125038440127e-31 -130.1264130142587 -52.810964616722 163.00227243864185 1.4953912261551742e-06 -2.599403895586178e-06 -53.10783139910572 1.590277340731758e-15 -7.95138670365879e-16 1.1034765745125397e-32 -11.173216859766253 -51.79968002405994 25.242471659996106 93.00998883990604 58.136879529300224 -136.46909800376116 7.752602036067322e-15 0.0 0.0 2.8772377080866787 -43.16601774086675 -14.407424334176875 -19.642752749889624 74.98775628869379 56.033923321768825 0.0 0.0 1.4908850069360234e-15
10.800000190734863 1.3000000715255737 5.299999713897705 -1.4830532047195588 3.7020615691759136 -116.50937589709912 -1.4920204509428016e-07 5.746077710187077e-08 -3.859279559719819 99.254984838963 -24.25857982538816 178.33904429669064 7.413381603173302e-07 2.55849488815873e-06 56.99078604642748 -6.3611093629270335e-15 1.7655625192200634e-31 -3.1805546814635168e-15 -131.6401911506627 -53.11405650306507 161.54260234936731 -5.142043847944072e-06 -4.973248441293428e-06 -53.22150380706398 1.5902773407317584e-15 7.951386703658792e-16 -1.1034765745125397e-32 -11.724232500830581 -52.462609755966135 25.36724950312617 92.91225589039797 57.63048852060277 -136.53235605203264 -4.770832022195275e-15 3.310429723537619e-32 -7.951386703658792e-16 3.2709042818243574 -43.35576347339412 -13.159812705278439 -17.058681122918976 74.86989674190639 52.707222773597806 -3.1805546814635168e-15 -3.1805546814635168e-15 1.5654292572828246e-15
10.59999942779541 1.3000000715255737 5.200000286102295 -0.5544583568774242 3.3229644143688706 -116.527253726647 -1.6156749627236027e-07 -1.6622528160033172e-08 -4.093412297490159 99.34907272519446 -23.856741540012628 178.58073772048218 2.0885091898530416e-06 3.389617103717983e-06 57.233180117677136 0.0 0.0 0.0 -132.37875625023298 -52.78790887479895 160.73724403408687 -3.784004375716807e-06 -3.612306888479492e-06 -53.66665051842481 0.0 0.0 -3.1805546814635168e-15 -11.73363333804113 -53.419945801869964 25.40015482906162 92.83236379061351 57.29085165416836 -136.59909728065296 -2.3854160110976376e-15 0.0 0.0 3.565739467090276 -44.30386045067024 -13.111640895469346 -18.3349034516714 75.18293653217157 54.0002004650767 -3.1805546814635176e-15 -3.1805546814635176e-15 -1.6648215910785598e-15
10.40000057220459 1.3000000715255737 5.200000286102295 -0.3708392500000374 2.9640626623136472 -116.42402791923087 9.900564181767591e-09 2.701524060884389e-07 -4.405033436048528 99.4147573012299 -23.667032785470372 178.7820477156849 2.1235258967222913e-06 2.3836355782545436e-06 57.57931635142726 -6.3611093629270335e-15 6.3611093629270335e-15 3.531125038440127e-31 -133.5989985852009 -53.21043233934019 159.76878487094208 -8.412506886545662e-07 5.834659724492609e-07 -53.553746794857496 1.5902773407317588e-15 0.0 0.0 -12.19486957892204 -53.352718320172116 25.06321055503933 92.73240888770604 57.75799032606319 -136.4188764213896 -4.174478019420865e-15 -1.5902773407317582e-15 -5.793252016190833e-32 3.5254157024355677 -43.715273717204646 -12.340783072269979 -15.875272682926553 74.30430839849897 51.399787149148665 0.0 0.0 -2.4972323866178387e-15
10.100000381469727 1.3000000715255737 5.099999904632568 -0.18482350283570234 2.7702011680737835 -116.39088855915026 -8.93390974856891e-08 1.6893764891577755e-07 -4.632928169300637 99.2335565815131 -23.529293303124483 178.80724432120448 -7.120573258807354e-06 -1.739304355375567e-07 57.51245459164136 -8.827812596100317e-32 -6.361109362927033e-15 -1.5902773407317582e-15 -134.2837300367844 -53.76709167472885 159.02073016884214 -5.632230111994911e-06 -1.429729369650905e-07 -53.4238332437938 -6.361109362927035e-15 0.0 0.0 -12.583798615866534 -53.259972174242854 24.361213238229357 92.99543397349031 58.23260695411624 -136.0690030391463 -5.963540027744094e-16 -8.276074308844047e-33 1.5902773407317584e-15 3.1047317045512957 -43.80609568694138 -12.768962649681026 -17.210650325150663 74.49799355604388 52.897021523669146 0.0 0.0 -2.7084410959337767e-15
9.899999618530273 1.3000000715255737 5.0 0.18482329765311073 2.7702013356784985 -116.29879593297062 9.841907686832655e-08 1.334261589171502e-07 -4.282285743522294 99.73064617797107 -24.54597287818532 179.09681498100787 3.2536271928743028e-06 -7.073632591059174e-06 57.55328555578603 6.3611093629270335e-15 0.0 0.0 -133.5696132927895 -53.08995289198483 159.4074034848352 -4.4819443134181016e-07 -2.918974634223128e-06 -53.104529636309934 -1.5902773407317584e-15 -6.3611093629270335e-15 -8.827812596100317e-32 -12.279730536781928 -53.288140938082144 24.45292321805283 93.18568275574448 58.57925455709313 -136.3792628196349 -7.951386703658792e-15 0.0 0.0 3.1801436596229813 -44.14249393647 -13.074172499775605 -18.27279359732856 74.80325904272166 54.10801950798679 -4.080277052474883e-31 3.1805546814635164e-15 1.470074737047541e-14
9.600000381469727 1.3000000715255737 4.900000095367432 -0.36964469589364035 2.9545176451324413 -116.2068394540173 8.855782166406227e-08 1.8826666482137224e-07 -4.266830494671738 99.70355159093334 -25.06062598502038 178.58123802194262 9.550284510402285e-07 1.0535884696018865e-06 57.71263304812273 0.0 0.0 -1.5902773407317584e-15 -133.84116098149482 -53.83577563953901 159.44788039222698 3.0500237594561014e-07 1.2821178710274459e-06 -52.68843867211224 4.770832022195274e-15 0.0 0.0 -12.075146702497996 -52.10677099927772 24.74026348362495 93.23437729009369 58.770872675401364 -136.97541787623672 -3.1805546814635168e-15 3.1805546814635168e-15 8.827812596100317e-32 3.007702898637876 -42.600627181316916 -12.367572225077952 -15.344657597188213 74.9914882767874 51.34246164072451 -4.3276971906663664e-32 -3.1805546814635164e-15 -1.559217236420591e-15
